<svg xmlns="http://www.w3.org/2000/svg" version="1.1" xmlns:xlink="http://www.w3.org/1999/xlink" width="31.999998" height="31.999998"><svg width="31.999998" height="31.999998" viewBox="0 0 31.999998 31.999998" version="1.1" id="SvgjsSvg1014" xml:space="preserve" inkscape:version="1.4 (e7c3feb100, 2024-10-09)" sodipodi:docname="jawanndenn_favicon.svg" xmlns:inkscape="http://www.inkscape.org/namespaces/inkscape" xmlns:sodipodi="http://sodipodi.sourceforge.net/DTD/sodipodi-0.dtd" xmlns="http://www.w3.org/2000/svg" xmlns:svg="http://www.w3.org/2000/svg"><sodipodi:namedview id="SvgjsSodipodi:namedview1013" pagecolor="#ffffff" bordercolor="#666666" borderopacity="1.0" inkscape:showpageshadow="2" inkscape:pageopacity="0.0" inkscape:pagecheckerboard="0" inkscape:deskcolor="#d1d1d1" inkscape:document-units="mm" inkscape:zoom="6.144235" inkscape:cx="7.0798073" inkscape:cy="23.599358" inkscape:window-width="1920" inkscape:window-height="1022" inkscape:window-x="0" inkscape:window-y="0" inkscape:window-maximized="1" inkscape:current-layer="layer1"></sodipodi:namedview><defs id="SvgjsDefs1012"></defs><g inkscape:label="Layer 1" inkscape:groupmode="layer" id="SvgjsG1011" transform="translate(-7.7669255,-7.7669255)"><g id="SvgjsG1010" transform="matrix(1.7777842,0,0,1.7777842,2.4330541,2.4330541)"><rect style="color:#000000;overflow:visible;opacity:1;fill:#fff59d;fill-opacity:1;stroke:none;stroke-width:0.0613541;stroke-dasharray:0.0613541, 0.122708;paint-order:fill markers stroke" id="SvgjsRect1009" width="14.22012" height="15.90762" x="4.8800716" y="4.1695442"></rect><path id="SvgjsPath1008" style="overflow:visible;opacity:1;fill:#fbc02d;fill-opacity:1;stroke:none;stroke-width:0.1;stroke-dasharray:0.1, 0.2;paint-order:fill markers stroke" d="m 5.0006855,3.0002915 c -1.1,0 -2.000394,0.899878 -2.000394,1.999878 V 18.999831 c 0,1.1 0.900394,2.000395 2.000394,2.000395 H 19.000348 c 1.1,0 1.999878,-0.900395 1.999878,-2.000395 V 5.0001695 c 0,-1.1 -0.899878,-1.999878 -1.999878,-1.999878 z m 7.0295445,3.420463 c 1.049909,0 1.86985,0.254855 2.459799,0.764811 0.589948,0.504956 0.885217,1.229626 0.885217,2.174544 0,0.6549425 -0.185037,1.2028315 -0.555005,1.6427935 -0.364968,0.434963 -0.792652,0.882077 -1.282609,1.342037 -0.279976,0.249978 -0.47,0.514808 -0.569991,0.794784 -0.09999,0.279975 -0.154849,0.610153 -0.164848,0.99012 h -1.919779 c 0.005,-0.674942 0.08755,-1.222313 0.24753,-1.642277 0.164986,-0.419963 0.462489,-0.822712 0.892452,-1.207678 0.344969,-0.304974 0.627512,-0.594739 0.847493,-0.869714 0.224981,-0.274977 0.337447,-0.5924275 0.337447,-0.9523965 0,-0.844926 -0.392773,-1.267623 -1.177706,-1.267623 -0.309973,0 -0.589763,0.100257 -0.839742,0.30024 -0.249978,0.199983 -0.380158,0.525173 -0.390157,0.975134 H 8.6257875 c 0.015,-1.039909 0.347412,-1.807744 0.997355,-2.302701 0.6549425,-0.494957 1.4571705,-0.742074 2.4070875,-0.742074 z m -0.149861,8.8640575 c 0.369968,0 0.665236,0.109715 0.885217,0.329696 0.219981,0.219981 0.329696,0.49255 0.329696,0.817521 0,0.324972 -0.109715,0.59754 -0.329696,0.817521 -0.219981,0.219981 -0.515249,0.330213 -0.885217,0.330213 -0.369968,0 -0.66472,-0.110232 -0.884701,-0.330213 -0.214981,-0.219981 -0.322461,-0.492549 -0.322461,-0.817521 0,-0.324971 0.10748,-0.59754 0.322461,-0.817521 0.219981,-0.219981 0.514733,-0.329696 0.884701,-0.329696 z"></path></g></g></svg><style>@media (prefers-color-scheme: light) { :root { filter: none; } }
@media (prefers-color-scheme: dark) { :root { filter: none; } }
</style></svg>
